<svg width="84" height="41" viewBox="0 0 84 41" fill="none" xmlns="http://www.w3.org/2000/svg">
<path d="M8.07672 36.58H5.16672L4.66672 38H3.47672L5.96672 31.04H7.28672L9.77672 38H8.57672L8.07672 36.58ZM7.75672 35.65L6.62672 32.42L5.48672 35.65H7.75672ZM10.4794 35.22C10.4794 34.6667 10.5927 34.1767 10.8194 33.75C11.0527 33.3233 11.366 32.9933 11.7594 32.76C12.1594 32.52 12.6027 32.4 13.0894 32.4C13.4494 32.4 13.8027 32.48 14.1494 32.64C14.5027 32.7933 14.7827 33 14.9894 33.26V30.6H16.1394V38H14.9894V37.17C14.8027 37.4367 14.5427 37.6567 14.2094 37.83C13.8827 38.0033 13.506 38.09 13.0794 38.09C12.5994 38.09 12.1594 37.97 11.7594 37.73C11.366 37.4833 11.0527 37.1433 10.8194 36.71C10.5927 36.27 10.4794 35.7733 10.4794 35.22ZM14.9894 35.24C14.9894 34.86 14.9094 34.53 14.7494 34.25C14.596 33.97 14.3927 33.7567 14.1394 33.61C13.886 33.4633 13.6127 33.39 13.3194 33.39C13.026 33.39 12.7527 33.4633 12.4994 33.61C12.246 33.75 12.0394 33.96 11.8794 34.24C11.726 34.5133 11.6494 34.84 11.6494 35.22C11.6494 35.6 11.726 35.9333 11.8794 36.22C12.0394 36.5067 12.246 36.7267 12.4994 36.88C12.7594 37.0267 13.0327 37.1 13.3194 37.1C13.6127 37.1 13.886 37.0267 14.1394 36.88C14.3927 36.7333 14.596 36.52 14.7494 36.24C14.9094 35.9533 14.9894 35.62 14.9894 35.24ZM24.3067 32.4C24.7401 32.4 25.1267 32.49 25.4667 32.67C25.8134 32.85 26.0834 33.1167 26.2767 33.47C26.4767 33.8233 26.5767 34.25 26.5767 34.75V38H25.4467V34.92C25.4467 34.4267 25.3234 34.05 25.0767 33.79C24.8301 33.5233 24.4934 33.39 24.0667 33.39C23.6401 33.39 23.3001 33.5233 23.0467 33.79C22.8001 34.05 22.6767 34.4267 22.6767 34.92V38H21.5467V34.92C21.5467 34.4267 21.4234 34.05 21.1767 33.79C20.9301 33.5233 20.5934 33.39 20.1667 33.39C19.7401 33.39 19.4001 33.5233 19.1467 33.79C18.9001 34.05 18.7767 34.4267 18.7767 34.92V38H17.6367V32.49H18.7767V33.12C18.9634 32.8933 19.2001 32.7167 19.4867 32.59C19.7734 32.4633 20.0801 32.4 20.4067 32.4C20.8467 32.4 21.2401 32.4933 21.5867 32.68C21.9334 32.8667 22.2001 33.1367 22.3867 33.49C22.5534 33.1567 22.8134 32.8933 23.1667 32.7C23.5201 32.5 23.9001 32.4 24.3067 32.4ZM28.6073 31.76C28.4007 31.76 28.2273 31.69 28.0873 31.55C27.9473 31.41 27.8773 31.2367 27.8773 31.03C27.8773 30.8233 27.9473 30.65 28.0873 30.51C28.2273 30.37 28.4007 30.3 28.6073 30.3C28.8073 30.3 28.9773 30.37 29.1173 30.51C29.2573 30.65 29.3273 30.8233 29.3273 31.03C29.3273 31.2367 29.2573 31.41 29.1173 31.55C28.9773 31.69 28.8073 31.76 28.6073 31.76ZM29.1673 32.49V38H28.0273V32.49H29.1673ZM33.4441 32.4C33.8774 32.4 34.2641 32.49 34.6041 32.67C34.9507 32.85 35.2207 33.1167 35.4141 33.47C35.6074 33.8233 35.7041 34.25 35.7041 34.75V38H34.5741V34.92C34.5741 34.4267 34.4507 34.05 34.2041 33.79C33.9574 33.5233 33.6207 33.39 33.1941 33.39C32.7674 33.39 32.4274 33.5233 32.1741 33.79C31.9274 34.05 31.8041 34.4267 31.8041 34.92V38H30.6641V32.49H31.8041V33.12C31.9907 32.8933 32.2274 32.7167 32.5141 32.59C32.8074 32.4633 33.1174 32.4 33.4441 32.4ZM40.8959 33.3C41.0892 33.0467 41.3525 32.8333 41.6859 32.66C42.0192 32.4867 42.3959 32.4 42.8159 32.4C43.2959 32.4 43.7325 32.52 44.1259 32.76C44.5259 32.9933 44.8392 33.3233 45.0659 33.75C45.2925 34.1767 45.4059 34.6667 45.4059 35.22C45.4059 35.7733 45.2925 36.27 45.0659 36.71C44.8392 37.1433 44.5259 37.4833 44.1259 37.73C43.7325 37.97 43.2959 38.09 42.8159 38.09C42.3959 38.09 42.0225 38.0067 41.6959 37.84C41.3692 37.6667 41.1025 37.4533 40.8959 37.2V40.62H39.7559V32.49H40.8959V33.3ZM44.2459 35.22C44.2459 34.84 44.1659 34.5133 44.0059 34.24C43.8525 33.96 43.6459 33.75 43.3859 33.61C43.1325 33.4633 42.8592 33.39 42.5659 33.39C42.2792 33.39 42.0059 33.4633 41.7459 33.61C41.4925 33.7567 41.2859 33.97 41.1259 34.25C40.9725 34.53 40.8959 34.86 40.8959 35.24C40.8959 35.62 40.9725 35.9533 41.1259 36.24C41.2859 36.52 41.4925 36.7333 41.7459 36.88C42.0059 37.0267 42.2792 37.1 42.5659 37.1C42.8592 37.1 43.1325 37.0267 43.3859 36.88C43.6459 36.7267 43.8525 36.5067 44.0059 36.22C44.1659 35.9333 44.2459 35.6 44.2459 35.22ZM46.1532 35.22C46.1532 34.6667 46.2665 34.1767 46.4932 33.75C46.7265 33.3233 47.0399 32.9933 47.4332 32.76C47.8332 32.52 48.2732 32.4 48.7532 32.4C49.1865 32.4 49.5632 32.4867 49.8832 32.66C50.2099 32.8267 50.4699 33.0367 50.6632 33.29V32.49H51.8132V38H50.6632V37.18C50.4699 37.44 50.2065 37.6567 49.8732 37.83C49.5399 38.0033 49.1599 38.09 48.7332 38.09C48.2599 38.09 47.8265 37.97 47.4332 37.73C47.0399 37.4833 46.7265 37.1433 46.4932 36.71C46.2665 36.27 46.1532 35.7733 46.1532 35.22ZM50.6632 35.24C50.6632 34.86 50.5832 34.53 50.4232 34.25C50.2699 33.97 50.0665 33.7567 49.8132 33.61C49.5599 33.4633 49.2865 33.39 48.9932 33.39C48.6999 33.39 48.4265 33.4633 48.1732 33.61C47.9199 33.75 47.7132 33.96 47.5532 34.24C47.3999 34.5133 47.3232 34.84 47.3232 35.22C47.3232 35.6 47.3999 35.9333 47.5532 36.22C47.7132 36.5067 47.9199 36.7267 48.1732 36.88C48.4332 37.0267 48.7065 37.1 48.9932 37.1C49.2865 37.1 49.5599 37.0267 49.8132 36.88C50.0665 36.7333 50.2699 36.52 50.4232 36.24C50.5832 35.9533 50.6632 35.62 50.6632 35.24ZM56.0905 32.4C56.5239 32.4 56.9105 32.49 57.2505 32.67C57.5972 32.85 57.8672 33.1167 58.0605 33.47C58.2539 33.8233 58.3505 34.25 58.3505 34.75V38H57.2205V34.92C57.2205 34.4267 57.0972 34.05 56.8505 33.79C56.6039 33.5233 56.2672 33.39 55.8405 33.39C55.4139 33.39 55.0739 33.5233 54.8205 33.79C54.5739 34.05 54.4505 34.4267 54.4505 34.92V38H53.3105V32.49H54.4505V33.12C54.6372 32.8933 54.8739 32.7167 55.1605 32.59C55.4539 32.4633 55.7639 32.4 56.0905 32.4ZM64.8547 35.11C64.8547 35.3167 64.8414 35.5033 64.8147 35.67H60.6047C60.638 36.11 60.8014 36.4633 61.0947 36.73C61.388 36.9967 61.748 37.13 62.1747 37.13C62.788 37.13 63.2214 36.8733 63.4747 36.36H64.7047C64.538 36.8667 64.2347 37.2833 63.7947 37.61C63.3614 37.93 62.8214 38.09 62.1747 38.09C61.648 38.09 61.1747 37.9733 60.7547 37.74C60.3414 37.5 60.0147 37.1667 59.7747 36.74C59.5414 36.3067 59.4247 35.8067 59.4247 35.24C59.4247 34.6733 59.538 34.1767 59.7647 33.75C59.998 33.3167 60.3214 32.9833 60.7347 32.75C61.1547 32.5167 61.6347 32.4 62.1747 32.4C62.6947 32.4 63.158 32.5133 63.5647 32.74C63.9714 32.9667 64.288 33.2867 64.5147 33.7C64.7414 34.1067 64.8547 34.5767 64.8547 35.11ZM63.6647 34.75C63.658 34.33 63.508 33.9933 63.2147 33.74C62.9214 33.4867 62.558 33.36 62.1247 33.36C61.7314 33.36 61.3947 33.4867 61.1147 33.74C60.8347 33.9867 60.668 34.3233 60.6147 34.75H63.6647ZM67.1166 30.6V38H65.9766V30.6H67.1166Z" fill="#6C7275"/>
<path d="M9.90019 20.168C8.34819 20.168 6.91619 19.808 5.60419 19.088C4.30819 18.352 3.27619 17.336 2.50819 16.04C1.75619 14.728 1.38019 13.256 1.38019 11.624C1.38019 9.992 1.75619 8.528 2.50819 7.232C3.27619 5.936 4.30819 4.928 5.60419 4.208C6.91619 3.472 8.34819 3.104 9.90019 3.104C11.4682 3.104 12.9002 3.472 14.1962 4.208C15.5082 4.928 16.5402 5.936 17.2922 7.232C18.0442 8.528 18.4202 9.992 18.4202 11.624C18.4202 13.256 18.0442 14.728 17.2922 16.04C16.5402 17.336 15.5082 18.352 14.1962 19.088C12.9002 19.808 11.4682 20.168 9.90019 20.168ZM9.90019 17.792C11.0042 17.792 11.9882 17.544 12.8522 17.048C13.7162 16.536 14.3882 15.816 14.8682 14.888C15.3642 13.944 15.6122 12.856 15.6122 11.624C15.6122 10.392 15.3642 9.312 14.8682 8.384C14.3882 7.456 13.7162 6.744 12.8522 6.248C11.9882 5.752 11.0042 5.504 9.90019 5.504C8.79619 5.504 7.81219 5.752 6.94819 6.248C6.08419 6.744 5.40419 7.456 4.90819 8.384C4.42819 9.312 4.18819 10.392 4.18819 11.624C4.18819 12.856 4.42819 13.944 4.90819 14.888C5.40419 15.816 6.08419 16.536 6.94819 17.048C7.81219 17.544 8.79619 17.792 9.90019 17.792ZM25.9125 20.216C24.8725 20.216 23.9365 20.032 23.1045 19.664C22.2885 19.28 21.6405 18.768 21.1605 18.128C20.6805 17.472 20.4245 16.744 20.3925 15.944H23.2245C23.2725 16.504 23.5365 16.976 24.0165 17.36C24.5125 17.728 25.1285 17.912 25.8645 17.912C26.6325 17.912 27.2245 17.768 27.6405 17.48C28.0725 17.176 28.2885 16.792 28.2885 16.328C28.2885 15.832 28.0485 15.464 27.5685 15.224C27.1045 14.984 26.3605 14.72 25.3365 14.432C24.3445 14.16 23.5365 13.896 22.9125 13.64C22.2885 13.384 21.7445 12.992 21.2805 12.464C20.8325 11.936 20.6085 11.24 20.6085 10.376C20.6085 9.672 20.8165 9.032 21.2325 8.456C21.6485 7.864 22.2405 7.4 23.0085 7.064C23.7925 6.728 24.6885 6.56 25.6965 6.56C27.2005 6.56 28.4085 6.944 29.3205 7.712C30.2485 8.464 30.7445 9.496 30.8085 10.808H28.0725C28.0245 10.216 27.7845 9.744 27.3525 9.392C26.9205 9.04 26.3365 8.864 25.6005 8.864C24.8805 8.864 24.3285 9 23.9445 9.272C23.5605 9.544 23.3685 9.904 23.3685 10.352C23.3685 10.704 23.4965 11 23.7525 11.24C24.0085 11.48 24.3205 11.672 24.6885 11.816C25.0565 11.944 25.6005 12.112 26.3205 12.32C27.2805 12.576 28.0645 12.84 28.6725 13.112C29.2965 13.368 29.8325 13.752 30.2805 14.264C30.7285 14.776 30.9605 15.456 30.9765 16.304C30.9765 17.056 30.7685 17.728 30.3525 18.32C29.9365 18.912 29.3445 19.376 28.5765 19.712C27.8245 20.048 26.9365 20.216 25.9125 20.216ZM46.0528 13.064C46.0528 13.56 46.0208 14.008 45.9568 14.408H35.8528C35.9328 15.464 36.3248 16.312 37.0288 16.952C37.7328 17.592 38.5968 17.912 39.6208 17.912C41.0928 17.912 42.1328 17.296 42.7408 16.064H45.6928C45.2928 17.28 44.5648 18.28 43.5088 19.064C42.4688 19.832 41.1728 20.216 39.6208 20.216C38.3568 20.216 37.2208 19.936 36.2128 19.376C35.2208 18.8 34.4368 18 33.8608 16.976C33.3008 15.936 33.0208 14.736 33.0208 13.376C33.0208 12.016 33.2928 10.824 33.8368 9.8C34.3968 8.76 35.1728 7.96 36.1648 7.4C37.1728 6.84 38.3248 6.56 39.6208 6.56C40.8688 6.56 41.9808 6.832 42.9568 7.376C43.9328 7.92 44.6928 8.688 45.2368 9.68C45.7808 10.656 46.0528 11.784 46.0528 13.064ZM43.1968 12.2C43.1808 11.192 42.8208 10.384 42.1168 9.776C41.4128 9.168 40.5408 8.864 39.5008 8.864C38.5568 8.864 37.7488 9.168 37.0768 9.776C36.4048 10.368 36.0048 11.176 35.8768 12.2H43.1968ZM51.4813 2.24V20H48.7453V2.24H51.4813ZM66.9774 6.776L58.8654 26.216H56.0334L58.7214 19.784L53.5134 6.776H56.5614L60.2814 16.856L64.1454 6.776H66.9774ZM68.1302 13.328C68.1302 12 68.4022 10.824 68.9462 9.8C69.5062 8.776 70.2582 7.984 71.2022 7.424C72.1622 6.848 73.2182 6.56 74.3702 6.56C75.4102 6.56 76.3142 6.768 77.0822 7.184C77.8662 7.584 78.4902 8.088 78.9542 8.696V6.776H81.7142V20H78.9542V18.032C78.4902 18.656 77.8582 19.176 77.0582 19.592C76.2582 20.008 75.3462 20.216 74.3222 20.216C73.1862 20.216 72.1462 19.928 71.2022 19.352C70.2582 18.76 69.5062 17.944 68.9462 16.904C68.4022 15.848 68.1302 14.656 68.1302 13.328ZM78.9542 13.376C78.9542 12.464 78.7622 11.672 78.3782 11C78.0102 10.328 77.5222 9.816 76.9142 9.464C76.3062 9.112 75.6502 8.936 74.9462 8.936C74.2422 8.936 73.5862 9.112 72.9782 9.464C72.3702 9.8 71.8742 10.304 71.4902 10.976C71.1222 11.632 70.9382 12.416 70.9382 13.328C70.9382 14.24 71.1222 15.04 71.4902 15.728C71.8742 16.416 72.3702 16.944 72.9782 17.312C73.6022 17.664 74.2582 17.84 74.9462 17.84C75.6502 17.84 76.3062 17.664 76.9142 17.312C77.5222 16.96 78.0102 16.448 78.3782 15.776C78.7622 15.088 78.9542 14.288 78.9542 13.376Z" fill="black"/>
</svg>
